HIERARCHY
ROOT Hips
{
	OFFSET -13.091600 -28.302996 44.698402
	CHANNELS 6 Xposition Yposition Zposition Zrotation Xrotation Yrotation
	JOINT Chest
	{
		OFFSET -0.673000 0.623899 5.369202
		CHANNELS 6 Xposition Yposition Zposition Zrotation Xrotation Yrotation
		JOINT Chest2
		{
			OFFSET 0.000000 0.000000 4.415001
			CHANNELS 6 Xposition Yposition Zposition Zrotation Xrotation Yrotation
			JOINT Neck
			{
				OFFSET 0.000000 0.000002 10.273300
				CHANNELS 6 Xposition Yposition Zposition Zrotation Xrotation Yrotation
				JOINT Head
				{
					OFFSET 0.000000 0.000000 2.173897
					CHANNELS 6 Xposition Yposition Zposition Zrotation Xrotation Yrotation
					End Site
					{
						OFFSET 0.000000 0.000000 9.961800
					}
				}
			}
			JOINT LeftCollar
			{
				OFFSET 2.359900 -0.565201 5.928101
				CHANNELS 6 Xposition Yposition Zposition Zrotation Xrotation Yrotation
				JOINT LeftShoulder
				{
					OFFSET 5.443700 0.000000 0.000000
					CHANNELS 6 Xposition Yposition Zposition Zrotation Xrotation Yrotation
					JOINT LeftElbow
					{
						OFFSET 0.000000 0.000000 -10.615799
						CHANNELS 6 Xposition Yposition Zposition Zrotation Xrotation Yrotation
						JOINT LeftWrist
						{
							OFFSET 0.000000 -0.000002 -13.110302
							CHANNELS 6 Xposition Yposition Zposition Zrotation Xrotation Yrotation
							End Site
							{
								OFFSET 0.000000 0.000000 -2.173901
							}
						}
					}
				}
			}
			JOINT RightCollar
			{
				OFFSET -2.636600 -1.718800 6.889698
				CHANNELS 6 Xposition Yposition Zposition Zrotation Xrotation Yrotation
				JOINT RightShoulder
				{
					OFFSET -4.139101 0.000000 0.000000
					CHANNELS 6 Xposition Yposition Zposition Zrotation Xrotation Yrotation
					JOINT RightElbow
					{
						OFFSET 0.000000 0.000000 -10.471802
						CHANNELS 6 Xposition Yposition Zposition Zrotation Xrotation Yrotation
						JOINT RightWrist
						{
							OFFSET 0.000000 0.000000 -12.281898
							CHANNELS 6 Xposition Yposition Zposition Zrotation Xrotation Yrotation
							End Site
							{
								OFFSET 0.000000 -0.000002 -2.173901
							}
						}
					}
				}
			}
		}
	}
	JOINT LeftHip
	{
		OFFSET 2.273400 0.176701 -2.518002
		CHANNELS 6 Xposition Yposition Zposition Zrotation Xrotation Yrotation
		JOINT LeftKnee
		{
			OFFSET 0.000000 -0.000002 -20.456402
			CHANNELS 6 Xposition Yposition Zposition Zrotation Xrotation Yrotation
			JOINT LeftAnkle
			{
				OFFSET 0.000000 -0.000002 -16.635300
				CHANNELS 6 Xposition Yposition Zposition Zrotation Xrotation Yrotation
				End Site
				{
					OFFSET 0.000000 -8.812399 0.000001
				}
			}
		}
	}
	JOINT RightHip
	{
		OFFSET -1.914800 0.018101 -2.699299
		CHANNELS 6 Xposition Yposition Zposition Zrotation Xrotation Yrotation
		JOINT RightKnee
		{
			OFFSET 0.000000 -0.000002 -20.148901
			CHANNELS 6 Xposition Yposition Zposition Zrotation Xrotation Yrotation
			JOINT RightAnkle
			{
				OFFSET 0.000000 -0.000002 -16.838301
				CHANNELS 6 Xposition Yposition Zposition Zrotation Xrotation Yrotation
				End Site
				{
					OFFSET 0.000000 -8.328398 0.000001
				}
			}
		}
	}
}
MOTION
Frames: 8
Frame Time: 0.041667
-11.027102 18.111410 44.878506 3550.683785 -4.186914 -8.374144 -0.672999 0.623898 5.369206 49.169053 10.449287 -2.401247 -0.000000 0.000001 4.415000 -28.013691 -3.685354 -2.329022 0.000002 -0.000001 10.273312 22.751263 -1.454916 5.745883 -0.000001 -0.000001 2.173902 -0.936632 -5.313487 -0.329726 2.359903 -0.565202 5.928095 8.154389 3.752941 3.092361 5.443698 -0.000003 0.000002 4.587323 348.110809 -86.253944 0.000003 -0.000002 -10.615791 608.757822 -166.047349 183.579106 0.000004 -0.000004 -13.110296 -1971.312806 180.788113 -531.613622 -2.636597 -1.718802 6.889708 194.893465 -189.192251 175.755316 -4.139099 -0.000002 0.000000 -131.626324 -108.801813 307.926293 0.000002 -0.000014 -10.471800 -28.144715 -18.417998 -371.908691 0.000009 -0.000011 -12.281895 14.298029 6.634211 35.541132 2.273398 0.176706 -2.518003 -441.096567 -135.510106 -70.561154 0.000003 -0.000002 -20.456390 846.068756 132.206631 -161.878338 -0.000001 -0.000001 -16.635296 -357.164771 51.820140 5.722839 -1.914799 0.018105 -2.699297 160.474065 196.169071 185.865280 0.000000 -0.000001 -20.148901 -892.428091 -219.615430 171.633925 -0.000000 -0.000004 -16.838305 1057.188919 15.480704 -6.886513
-11.089201 18.109011 45.013905 3550.831317 -3.391711 -8.696575 -0.672996 0.623899 5.369212 48.969536 10.092521 -1.254614 0.000001 -0.000002 4.415003 -28.142420 -3.584280 -2.347725 -0.000002 -0.000001 10.273310 21.988104 -1.154652 5.445548 0.000001 -0.000005 2.173905 -1.022981 -5.079416 -0.304968 2.359897 -0.565202 5.928106 8.169787 3.648118 2.188605 5.443695 -0.000004 -0.000005 4.126894 347.366154 -87.294571 -0.000002 -0.000000 -10.615790 607.464567 -167.949202 182.539906 0.000001 -0.000000 -13.110299 -1970.196589 180.176101 -533.019931 -2.636601 -1.718801 6.889705 194.864600 -189.300783 176.158024 -4.139093 -0.000003 0.000002 -132.816170 -109.199698 306.657298 0.000001 -0.000008 -10.471797 -28.068985 -17.302143 -370.723817 0.000002 -0.000008 -12.281904 12.641951 7.045840 35.183776 2.273401 0.176707 -2.518005 -443.020659 -135.503727 -72.888432 -0.000001 0.000001 -20.456396 849.444235 132.598465 -164.254793 -0.000003 0.000004 -16.635294 -358.799782 52.163640 4.871702 -1.914797 0.018103 -2.699296 159.325405 196.723122 185.704401 -0.000002 -0.000000 -20.148903 -892.303290 -218.977668 172.059924 -0.000000 -0.000004 -16.838303 1057.996630 15.686769 -7.120815
-11.151100 18.118608 45.158009 3551.135124 -2.573799 -8.776617 -0.673001 0.623898 5.369205 48.654299 9.548850 -0.294840 0.000001 0.000001 4.415006 -28.338207 -3.459931 -2.360111 -0.000000 0.000001 10.273305 21.049385 -0.914904 5.166204 0.000001 -0.000003 2.173902 -1.115402 -4.789319 -0.389055 2.359900 -0.565202 5.928098 8.243650 3.542865 1.406148 5.443697 -0.000002 -0.000004 3.709842 347.069232 -88.571810 -0.000001 0.000001 -10.615798 607.752309 -169.823023 182.004939 0.000001 -0.000003 -13.110297 -1970.556349 179.730896 -533.863705 -2.636600 -1.718803 6.889696 194.661935 -189.134440 176.399922 -4.139091 -0.000000 0.000000 -134.059538 -110.231405 305.232794 -0.000003 -0.000003 -10.471797 -28.070156 -16.042316 -369.545800 0.000000 0.000003 -12.281901 11.293052 7.515244 34.878904 2.273402 0.176703 -2.518003 -445.308608 -135.126386 -75.372825 0.000000 0.000004 -20.456396 851.155826 132.922134 -165.531451 -0.000002 0.000000 -16.635292 -359.836577 52.436260 4.665802 -1.914800 0.018101 -2.699294 157.547479 197.325982 185.224157 -0.000001 -0.000002 -20.148899 -892.504917 -218.445405 172.684777 0.000002 -0.000001 -16.838301 1059.327916 15.820072 -7.095386
-11.196600 18.120707 45.298508 3550.743016 -1.811496 -9.073701 -0.673002 0.623902 5.369207 49.029987 9.296585 0.574064 0.000002 -0.000002 4.415009 -28.539782 -3.373359 -2.374248 0.000001 -0.000003 10.273299 19.754531 -0.736704 5.154259 -0.000002 -0.000004 2.173909 -0.900258 -4.277040 -0.538084 2.359900 -0.565202 5.928102 8.419184 3.405802 0.770870 5.443696 -0.000004 -0.000000 3.158406 346.614615 -90.003390 0.000007 0.000001 -10.615794 608.013604 -171.566306 181.615058 0.000001 -0.000004 -13.110295 -1971.190846 179.384974 -534.824084 -2.636601 -1.718806 6.889700 194.519157 -188.825798 175.786243 -4.139102 0.000001 0.000003 -133.937906 -111.979380 305.408685 0.000001 0.000002 -10.471800 -28.021758 -14.799666 -368.516901 0.000003 -0.000002 -12.281898 10.433540 8.270304 34.732048 2.273398 0.176699 -2.518004 -447.213794 -134.907151 -78.154665 0.000000 0.000001 -20.456396 851.198282 132.858955 -165.653070 -0.000001 -0.000002 -16.635294 -359.921545 52.522720 4.518374 -1.914797 0.018100 -2.699295 156.447068 197.791965 185.078715 -0.000002 -0.000004 -20.148907 -892.445576 -217.794297 173.021177 0.000000 -0.000004 -16.838301 1060.624778 15.971301 -7.020983
-11.238804 18.116903 45.430702 3550.220425 -1.146351 -9.461269 -0.672997 0.623902 5.369207 49.532149 9.216017 1.371315 0.000002 -0.000005 4.415006 -28.822582 -3.209455 -2.386911 0.000001 -0.000003 10.273291 18.531499 -0.454056 5.238216 -0.000001 -0.000004 2.173910 -0.710176 -3.916280 -0.736043 2.359902 -0.565199 5.928098 8.547147 3.234363 -0.003333 5.443695 -0.000007 -0.000009 2.773370 346.021263 -91.033096 0.000004 -0.000002 -10.615796 607.679636 -172.767832 181.033727 -0.000000 -0.000010 -13.110304 -1971.264284 178.918813 -535.421261 -2.636600 -1.718803 6.889697 194.473121 -188.732853 176.432584 -4.139096 0.000000 0.000003 -136.146120 -112.813954 303.243132 -0.000001 -0.000014 -10.471798 -28.857973 -13.639590 -367.908112 0.000002 -0.000006 -12.281901 9.947935 8.646516 34.895348 2.273401 0.176707 -2.518006 -449.210449 -134.981313 -81.146500 0.000007 -0.000003 -20.456396 849.663949 132.489537 -164.805102 -0.000003 -0.000003 -16.635300 -359.234810 52.470937 4.284390 -1.914799 0.018105 -2.699296 155.812912 198.127163 185.172029 0.000002 -0.000002 -20.148899 -892.700534 -216.998279 173.334178 -0.000001 -0.000002 -16.838301 1061.803723 16.284904 -6.548958
-11.284895 18.107107 45.549004 3549.493037 -0.228308 -9.749954 -0.672999 0.623901 5.369208 50.280673 8.848561 2.224776 -0.000001 0.000002 4.414995 -29.175484 -3.047407 -2.397584 0.000000 -0.000001 10.273310 17.161952 -0.114002 5.412829 -0.000003 -0.000008 2.173911 -0.808677 -3.671114 -0.974663 2.359899 -0.565202 5.928106 8.593720 3.269022 -0.632166 5.443699 -0.000005 -0.000002 2.490512 345.234043 -92.044415 0.000010 -0.000004 -10.615801 607.475932 -173.791459 180.695182 0.000000 0.000003 -13.110293 -1971.358705 178.531992 -535.914565 -2.636601 -1.718801 6.889707 194.311054 -188.563601 176.598243 -4.139100 0.000002 0.000007 -137.172643 -113.992121 302.102764 0.000001 -0.000002 -10.471796 -29.323068 -12.589587 -367.299843 0.000002 -0.000001 -12.281913 9.701803 9.112359 34.923088 2.273401 0.176707 -2.518005 -450.874666 -134.778743 -83.836556 0.000000 0.000000 -20.456398 846.931436 132.053894 -163.114794 -0.000005 0.000003 -16.635300 -357.931091 52.396799 4.290347 -1.914801 0.018106 -2.699292 154.843312 198.824484 184.818717 0.000001 -0.000004 -20.148899 -892.791894 -216.527529 173.884786 0.000000 -0.000004 -16.838301 1063.187574 16.560997 -6.077304
-11.341604 18.094210 45.650505 3549.008257 -0.232709 -9.897801 -0.673000 0.623902 5.369204 50.763069 8.939578 2.235634 -0.000001 -0.000002 4.415004 -29.676888 -2.892646 -2.421391 -0.000001 -0.000002 10.273305 15.872047 0.266744 5.722265 0.000001 0.000003 2.173894 -0.868391 -3.447718 -1.266042 2.359898 -0.565205 5.928099 8.874757 3.139964 -1.268750 5.443698 -0.000002 -0.000005 2.119889 344.874256 -92.834777 -0.000006 -0.000004 -10.615794 607.811103 -174.644221 180.383247 -0.000002 -0.000001 -13.110293 -1971.924572 178.339395 -535.806593 -2.636601 -1.718804 6.889700 194.225008 -188.373967 176.994367 -4.139093 -0.000003 0.000008 -138.502508 -114.807598 300.598046 -0.000002 -0.000003 -10.471798 -30.037891 -11.832020 -366.985026 0.000000 -0.000003 -12.281894 9.381284 9.611024 35.178380 2.273401 0.176713 -2.518010 -453.919510 -134.468939 -87.782834 -0.000005 -0.000008 -20.456394 844.668949 131.517410 -161.751884 -0.000002 0.000002 -16.635296 -357.095021 52.436370 4.541862 -1.914799 0.018102 -2.699302 153.648070 198.697580 184.706784 -0.000003 0.000000 -20.148901 -892.731024 -216.098689 174.330484 -0.000000 -0.000004 -16.838303 1064.497878 16.760547 -5.650706
-11.399000 18.067614 45.728207 3548.922798 -0.150230 -10.194315 -0.672999 0.623898 5.369208 50.830445 9.017347 2.434759 -0.000000 0.000003 4.415007 -30.206966 -2.766607 -2.454941 0.000000 -0.000004 10.273300 14.863704 0.777414 5.962671 -0.000002 -0.000002 2.173901 -0.931487 -3.131693 -1.364275 2.359900 -0.565207 5.928104 9.142212 3.035154 -1.850445 5.443697 -0.000007 -0.000001 1.754557 344.181784 -93.586050 0.000009 -0.000002 -10.615796 606.432935 -175.388808 179.971783 -0.000000 -0.000005 -13.110291 -1971.154127 178.185060 -535.526938 -2.636602 -1.718803 6.889701 194.127541 -188.285626 177.614930 -4.139101 0.000003 0.000006 -139.657957 -114.828771 299.112617 0.000001 -0.000008 -10.471801 -30.461315 -11.290697 -366.828997 -0.000007 -0.000003 -12.281893 9.415226 9.796166 35.419879 2.273396 0.176704 -2.518001 -457.203519 -134.492599 -91.464457 0.000000 0.000001 -20.456398 842.252265 131.029967 -160.297518 -0.000002 0.000002 -16.635294 -356.318183 52.417870 4.703402 -1.914802 0.018101 -2.699296 152.841069 198.666202 184.852486 -0.000001 -0.000007 -20.148905 -891.884299 -215.566412 174.109582 -0.000001 -0.000003 -16.838299 1064.656119 16.936542 -5.493442
